<svg xmlns="http://www.w3.org/2000/svg" width="77" height="24" fill="none"><g fill="#8D8C8C" clip-path="url(#a)"><path d="M22.115 17.033a12.75 12.75 0 0 0-.35-.865 81.576 81.576 0 0 0-.56-1.237l-.015-.032A277.71 277.71 0 0 0 15.915 4.04l-.078-.153c-.188-.368-.383-.748-.583-1.122a7.293 7.293 0 0 0-.857-1.328A3.997 3.997 0 0 0 11.334 0 3.978 3.978 0 0 0 8.27 1.44c-.333.41-.62.855-.857 1.328-.202.377-.398.76-.588 1.132l-.073.142a277.889 277.889 0 0 0-5.274 10.857l-.025.053c-.182.397-.37.807-.55 1.217-.119.27-.244.562-.35.865a5.338 5.338 0 0 0-.285 2.586 5.127 5.127 0 0 0 1.028 2.417A5.092 5.092 0 0 0 5.335 24c.21 0 .42-.012.63-.036a6.391 6.391 0 0 0 2.4-.816c.968-.547 1.924-1.35 2.97-2.496 1.044 1.146 2 1.949 2.968 2.496.739.43 1.555.707 2.401.816.209.024.419.036.629.037a5.093 5.093 0 0 0 4.039-1.965c.546-.702.9-1.535 1.027-2.417a5.341 5.341 0 0 0-.284-2.586Zm-10.78 1.25c-1.294-1.65-2.124-3.182-2.415-4.467a3.975 3.975 0 0 1-.083-1.473c.05-.36.182-.704.385-1.006a2.668 2.668 0 0 1 2.112-1.045 2.657 2.657 0 0 1 2.113 1.045c.202.302.334.646.385 1.007.064.492.036.992-.084 1.473-.291 1.285-1.12 2.817-2.414 4.466Zm9.554 1.12a3.585 3.585 0 0 1-.719 1.689 3.56 3.56 0 0 1-1.459 1.108c-.58.234-1.21.317-1.83.24a4.817 4.817 0 0 1-1.83-.628c-.861-.487-1.734-1.235-2.715-2.333 1.563-1.94 2.539-3.728 2.9-5.32.163-.67.198-1.365.104-2.048a3.941 3.941 0 0 0-.635-1.641 4.172 4.172 0 0 0-6.742 0 3.94 3.94 0 0 0-.634 1.64 5.501 5.501 0 0 0 .103 2.047c.361 1.593 1.337 3.381 2.9 5.322-.981 1.098-1.854 1.846-2.716 2.333a4.818 4.818 0 0 1-1.828.629 3.696 3.696 0 0 1-1.831-.241 3.56 3.56 0 0 1-1.459-1.108 3.585 3.585 0 0 1-.718-1.69 3.786 3.786 0 0 1 .211-1.856c.086-.24.185-.478.309-.76.175-.397.36-.802.54-1.193l.024-.053A276.314 276.314 0 0 1 8.11 4.743l.073-.143c.187-.365.38-.743.576-1.107a5.93 5.93 0 0 1 .674-1.06 2.47 2.47 0 0 1 1.902-.9 2.458 2.458 0 0 1 1.902.9c.262.328.487.683.674 1.059.193.362.385.736.57 1.097l.079.154c1.836 3.58 3.6 7.214 5.245 10.798l.015.032c.182.398.371.809.55 1.214.123.282.223.519.308.76.224.59.297 1.229.212 1.855ZM31.278 18.09c-.595 0-1.143-.12-1.643-.36s-.929-.577-1.31-1.01a4.916 4.916 0 0 1-.881-1.489c-.214-.576-.31-1.2-.31-1.873s.12-1.322.334-1.899a5.225 5.225 0 0 1 .905-1.537 4.094 4.094 0 0 1 1.357-1.033 3.957 3.957 0 0 1 1.691-.36c.596 0 1.12.12 1.596.384.476.24.857.6 1.167 1.057l.071-1.177h2.191v9.057h-2.19l-.072-1.321c-.31.48-.715.864-1.239 1.153a3.429 3.429 0 0 1-1.667.408Zm.572-2.162c.429 0 .81-.12 1.167-.336.333-.24.595-.553.81-.937.19-.385.285-.841.285-1.346 0-.504-.095-.96-.285-1.345a2.565 2.565 0 0 0-.81-.937c-.334-.24-.738-.336-1.167-.336-.429 0-.81.12-1.167.336-.334.24-.596.553-.81.937-.19.384-.286.84-.286 1.345s.096.961.286 1.346c.19.384.476.696.81.937.357.216.738.336 1.167.336Zm8.336-9.586c0 .265-.048.505-.167.697a1.38 1.38 0 0 1-.5.48 1.4 1.4 0 0 1-.69.169 1.4 1.4 0 0 1-.692-.168 1.38 1.38 0 0 1-.5-.48 1.37 1.37 0 0 1-.166-.698c0-.264.047-.504.166-.696a1.21 1.21 0 0 1 .5-.48 1.4 1.4 0 0 1 .691-.169 1.4 1.4 0 0 1 .69.168c.215.12.382.289.5.48a1.5 1.5 0 0 1 .168.697Zm-2.549 11.484V8.769h2.382v9.057h-2.382Zm8.74-6.679v.024c-.118-.048-.261-.072-.38-.096-.143-.024-.262-.024-.405-.024-.667 0-1.167.192-1.5.6-.358.41-.525.986-.525 1.73v4.445h-2.381V8.769h2.19l.072 1.37c.239-.481.524-.842.93-1.106.38-.264.833-.384 1.357-.384.166 0 .333.024.476.048.072.024.12.024.167.048v2.402Zm.953 6.679V5.046h2.382v4.876a3.795 3.795 0 0 1 1.19-1.033c.477-.24 1.001-.384 1.596-.384.596 0 1.144.12 1.644.36s.929.576 1.31 1.009c.38.432.666.937.88 1.49.215.576.31 1.2.31 1.873s-.119 1.322-.333 1.898a5.22 5.22 0 0 1-.905 1.538 4.096 4.096 0 0 1-1.357 1.033c-.524.24-1.072.36-1.691.36-.596 0-1.12-.12-1.596-.384-.476-.24-.857-.6-1.167-1.057l-.072 1.177-2.19.024Zm4.597-1.898c.429 0 .81-.12 1.167-.336.333-.24.595-.553.81-.937.19-.385.285-.841.285-1.346 0-.504-.095-.96-.285-1.345a2.807 2.807 0 0 0-.81-.937c-.334-.24-.738-.336-1.167-.336-.429 0-.81.12-1.167.336-.334.24-.596.553-.81.937-.19.384-.286.84-.286 1.345s.096.961.286 1.346c.19.384.476.696.81.937.357.216.738.336 1.167.336Zm5.62 1.898V8.769h2.192l.071 1.177c.262-.432.62-.769 1.072-1.033.452-.264.976-.384 1.572-.384.666 0 1.238.168 1.714.48.5.312.882.769 1.144 1.345.262.577.404 1.274.404 2.067v5.429h-2.381v-5.117c0-.625-.143-1.13-.429-1.49-.286-.36-.667-.552-1.167-.552-.357 0-.667.072-.953.24a1.815 1.815 0 0 0-.642.697c-.167.288-.239.648-.239 1.009v5.189h-2.358Zm9.36 0V5.046h2.382v4.876a3.794 3.794 0 0 1 1.19-1.033c.477-.24 1.001-.384 1.596-.384.596 0 1.144.12 1.644.36s.928.576 1.31 1.009c.38.432.666.937.88 1.49.215.576.31 1.2.31 1.873s-.118 1.322-.333 1.898a5.22 5.22 0 0 1-.905 1.538c-.381.432-.834.793-1.358 1.033-.524.24-1.071.36-1.69.36-.596 0-1.12-.12-1.596-.384-.477-.24-.858-.6-1.167-1.057l-.072 1.177-2.19.024Zm4.62-1.898c.43 0 .81-.12 1.168-.336.333-.24.595-.553.81-.937.19-.385.285-.841.285-1.346 0-.504-.095-.96-.286-1.345a2.565 2.565 0 0 0-.81-.937c-.333-.24-.738-.336-1.166-.336-.43 0-.81.12-1.167.336-.334.24-.596.553-.81.937-.215.384-.286.84-.286 1.345s.095.961.286 1.346c.19.384.476.696.81.937.357.216.714.336 1.167.336Z"/></g><defs><clipPath id="a"><path fill="#fff" d="M.22 0h76v24h-76z"/></clipPath></defs></svg>