<svg xmlns="http://www.w3.org/2000/svg" width="96" height="20" fill="none"><g fill="#8D8C8C" clip-path="url(#a)"><path fill-rule="evenodd" d="M95.995 7.37v1.713h-2.171v4.077c0 .53.06.917.265 1.122.193.265.53.326.917.326.06 0 .265 0 .398-.06.193-.061.326-.133.458-.194l.06-.06v1.64c-.132.06-.325.133-.663.194-.133 0-.277.012-.422.036-.145.012-.302.036-.422.036-1.774 0-2.63-.917-2.63-2.762V9.035h-3.088v6.972h-2.111V9.035h-1.448v-1.64h1.448V6.211c0-.591.133-1.122.398-1.58.265-.531.663-.857 1.122-1.122.458-.265 1.05-.398 1.64-.398.531 0 .917.06 1.183.133h.06v1.773l-.06-.06a2.551 2.551 0 0 0-.917-.194c-.459 0-.784.133-.99.398-.192.266-.325.592-.325 1.122v1.122h3.088V5.428h.06l1.979-.591h.06v2.57h2.11V7.37ZM42.11 4.077c.193-.193.53-.326.856-.326.398 0 .664.133.917.326.193.265.326.53.326.856 0 .326-.133.664-.398.857-.194.193-.531.325-.857.325-.326 0-.591-.132-.856-.325-.266-.266-.398-.531-.398-.857 0-.325.132-.663.398-.856h.012Zm-8.227 7.443-.591 1.58h-.06c-.06-.326-.266-.917-.531-1.58l-3.088-7.503h-3.028v11.978h1.978V6.984c0-.181-.024-.35-.036-.495-.012-.108-.024-.205-.024-.301h.06c.049.326.12.579.193.796.024.096.06.18.073.253l3.679 8.746h1.387l3.68-8.818c.023-.072.047-.169.072-.29.048-.193.108-.422.18-.639h.06c-.06.857-.06 1.64-.06 2.171v7.636h2.111V4.017h-2.895l-3.16 7.503Zm8.034-4.15h2.038v8.625h-2.038V7.37Zm9.409-.072c-.398-.06-.785-.133-1.183-.133-.916 0-1.773.193-2.496.591-.724.398-1.315.99-1.641 1.64-.398.724-.591 1.508-.591 2.497 0 .857.193 1.58.53 2.232.399.664.857 1.182 1.58 1.508.664.326 1.448.53 2.305.53.989 0 1.845-.192 2.497-.59v-1.846l-.06.06c-.326.193-.664.398-.99.531-.398.133-.723.193-.989.193-.856 0-1.447-.265-1.906-.724-.458-.53-.724-1.182-.724-2.038 0-.857.266-1.58.724-2.111.459-.531 1.122-.784 1.906-.784.664 0 1.387.193 1.978.663l.06.06V7.6a3.282 3.282 0 0 0-.988-.326l-.012.025Zm5.452.398c.398-.326.856-.459 1.387-.459.326 0 .591.06.664.133h.06v1.978l-.06-.06c-.06-.06-.266-.133-.459-.193-.096 0-.193-.012-.301-.036-.097-.012-.193-.036-.302-.036-.53 0-.99.265-1.315.723-.398.459-.53 1.122-.53 1.846v4.403h-1.979V7.37h2.039v1.508c.193-.531.458-.917.784-1.182h.012Zm6.972-.519c-1.447 0-2.63.398-3.426 1.254-.856.857-1.254 1.979-1.254 3.354s.398 2.437 1.182 3.22c.784.785 1.906 1.183 3.22 1.183 1.448 0 2.57-.398 3.354-1.255.857-.856 1.255-1.978 1.255-3.353 0-1.375-.398-2.437-1.182-3.22-.664-.785-1.774-1.183-3.16-1.183h.011Zm-.06 7.358c.724 0 1.315-.265 1.713-.723.458-.531.59-1.255.663-2.04 0-.916-.265-1.64-.663-2.11s-.99-.724-1.713-.724c-.784 0-1.315.193-1.773.724-.459.458-.664 1.182-.664 2.11 0 .857.193 1.581.664 2.04.398.458 1.05.723 1.773.723Zm9.083-3.619c-.663-.265-1.05-.458-1.254-.663a1.014 1.014 0 0 1-.266-.664c0-.265.06-.458.326-.59.265-.133.53-.266.917-.266.325 0 .723.06 1.05.133.264.048.53.193.76.313.06.024.108.06.156.085l.06.06V7.418h-.06c-.097-.024-.193-.06-.302-.096-.18-.06-.374-.133-.615-.17-.398-.06-.724-.06-.989-.06-.99 0-1.773.266-2.437.724-.663.459-.916 1.122-.916 1.906 0 .398.06.784.193 1.05.132.265.325.59.663.784.265.193.724.458 1.254.724.157.06.302.12.435.18.265.109.482.193.615.278.193.133.398.265.458.398s.133.265.133.458c0 .591-.458.857-1.387.857-.326 0-.724-.06-1.122-.193-.458-.133-.856-.326-1.182-.591l-.06-.06v1.978h.06c.326.132.663.265 1.122.325.072 0 .132.024.193.024.374.06.711.11.989.11 1.05 0 1.906-.266 2.57-.725.663-.53.988-1.122.988-1.978 0-.591-.132-1.122-.53-1.447a4.59 4.59 0 0 1-.326-.194c-.41-.24-.905-.542-1.508-.796l.012.012Zm4.403-2.497c.784-.856 1.978-1.254 3.426-1.254 1.447 0 2.437.398 3.16 1.182.784.784 1.182 1.846 1.182 3.22 0 1.376-.398 2.498-1.254 3.354-.784.857-1.906 1.255-3.354 1.255-1.314 0-2.436-.398-3.22-1.182-.784-.784-1.182-1.906-1.182-3.221 0-1.387.458-2.497 1.254-3.354h-.012Zm5.066 5.393c-.398.458-.989.723-1.713.723-.784 0-1.387-.265-1.773-.723-.458-.459-.663-1.183-.663-2.04 0-.916.193-1.64.663-2.11.459-.53.99-.724 1.773-.724.724 0 1.315.265 1.713.724.398.458.664 1.182.664 2.11-.06.785-.266 1.509-.664 2.04Z" clip-rule="evenodd"/><path d="M0 0h9.735v9.47H0V0ZM10.796 0h9.735v9.47h-9.735V0ZM0 10.458h9.735V20H0v-9.542ZM10.796 10.458h9.735V20h-9.735v-9.542Z"/></g><defs><clipPath id="a"><path fill="#fff" d="M0 0h95.995v20H0z"/></clipPath></defs></svg>