<svg xmlns="http://www.w3.org/2000/svg" width="34" height="24" fill="none"><g clip-path="url(#a)"><g><path fill="#A9A9A9" d="M32.362 10.085c.108 0 .171.014.171.108-.002.066-.046.092-.13.093h-.232l.002-.202h.19v.001Zm-.19.35h.133l.18.327.214-.002-.196-.344c.138-.012.219-.072.219-.228 0-.185-.107-.248-.276-.254l-.464.002v.826l.19-.002v-.324Zm.159-.668c.345 0 .58.227.582.568 0 .345-.237.588-.58.588-.343.001-.57-.234-.571-.576-.002-.344.224-.58.569-.58Zm.004-.185c-.542.001-.767.411-.767.766.003.362.231.762.768.762a.747.747 0 0 0 .768-.765c-.002-.398-.267-.764-.769-.763Z"/></g><path fill="#A9A9A9" d="m7.909 11.347.888-.002.008 4.198-.892.003-.004-4.2ZM7.908 9.64l.888-.002.003 1.33-.891.001v-1.33ZM28.395 9.61l.888-.001.01 5.905-.894.002-.004-5.906ZM30.796 9.607l-.888.002.01 5.905.888-.002-.01-5.905ZM5.56 13.018c.31 0 .56-.213.555-.518 0-.304-.248-.516-.559-.514l-3.579.005v1.037l3.582-.01Zm.138 1.898c.361 0 .657-.256.657-.615a.657.657 0 0 0-.66-.65l-3.718.006v1.268l3.721-.009Zm-4.612-3.561 4.937-.006c.826-.001 1.062.651 1.05 1.043-.015.391-.172.748-.396.856.408.19.67.687.662 1.099-.036 1.115-1.116 1.201-1.573 1.201l-4.671.006-.009-4.2ZM23.606 11.325c-.325 0-1.101.17-1.114.903-.013.629.325.914.539.984-.276.116-.527.604-.526 1.03 0 .427.16 1.28 1.549 1.28l3.799-.005-.003-.63-3.693.004c-.363.001-.66-.253-.658-.614a.65.65 0 0 1 .658-.65l3.5-.005-.003-.631-3.584.005c-.312.002-.564-.215-.564-.521-.005-.31.25-.523.562-.523l3.779-.006.001-.628-4.242.007ZM20.902 12.646l.904-.002c-.001-1.033-.471-1.33-1.746-1.315l-2.46.003c-.554 0-1.524.252-1.525 1.105.003.854.327 1.199 1.324 1.197l2.943-.004c.335-.002.681.211.682.603.002.391-.2.676-.816.666l-2.316.003c-.302 0-.927-.035-.927-.689l-.889.002c.003.511.108 1.316 1.466 1.315l2.91-.005c.574 0 1.508-.274 1.508-1.329-.002-1.055-.88-1.198-1.372-1.197l-2.94.004c-.48 0-.636-.296-.636-.52 0-.227.155-.52.636-.522l2.558-.004c.422.002.696.167.696.688ZM14.55 12.646l.904-.002c-.001-1.033-.47-1.33-1.745-1.315l-2.461.003c-.554 0-1.523.252-1.525 1.105.003.854.328 1.199 1.325 1.197l2.942-.004c.335-.002.683.211.683.603.001.391-.2.676-.816.666l-2.315.003c-.302 0-.927-.035-.927-.689l-.889.002c.003.511.108 1.316 1.465 1.315l2.91-.005c.575 0 1.509-.274 1.509-1.329-.002-1.055-.88-1.198-1.372-1.197l-2.942.004c-.48 0-.636-.296-.636-.52 0-.227.154-.52.636-.522l2.558-.004c.422.002.697.167.697.688ZM28.148 23.06c1.387-.002.83-1.311.582-1.752a704.322 704.322 0 0 1-2.288-4.079l-20.669.03s-1.913 3.442-2.28 4.086c-.25.441-.812 1.714.572 1.713l24.083.003ZM9.676 9.672 22.21 9.67s-3.14-5.767-3.892-7.093C17.636 1.367 17.222.78 15.9.784c-1.322.001-1.691.589-2.392 1.83-.684 1.212-3.83 7.058-3.83 7.058Z"/></g><defs><clipPath id="a"><path fill="#fff" d="M.443 0h33.333v24H.443z"/></clipPath></defs></svg>