<svg xmlns="http://www.w3.org/2000/svg" width="79" height="16" fill="none"><g clip-path="url(#a)"><path fill="#8D8C8C" fill-rule="evenodd" d="M75.834 5.57h2.982c.023 0 .041-.02.041-.044V2.542c0-.73-.238-1.323-.72-1.738-.443-.381-1.108-.611-1.997-.656-.022-.002-.04.018-.04.042v1.125c0 .022.016.04.036.042.78.055 1.373.31 1.373 1.2h-1.675c-.023 0-.041.02-.041.045v2.924c0 .024.018.044.04.044ZM11.315 7.986H7.698c-.056 0-.092.05-.092.102v1.97c0 .062.046.102.092.102h1.285v1.587c0 1.18-.284 1.813-1.285 1.813-.835 0-1.429-.514-1.429-2.113V6.84c0-1.53.45-2.248 1.445-2.248.898 0 1.264.56 1.264 1.604v.594c0 .062.047.1.093.1h2.224c.056 0 .093-.05.093-.1v-.696c.02-2.48-1.28-3.79-3.632-3.79-2.353 0-3.885 1.418-3.885 4.4v4.93c0 2.937 1.784 4.213 3.766 4.213 2.218 0 3.766-.886 3.766-4.167V8.082a.099.099 0 0 0-.024-.069.096.096 0 0 0-.064-.033v.006Zm6.924 5.25h-3.478V2.653c0-.063-.046-.102-.092-.102H12.48c-.056 0-.091.05-.091.102v12.86c0 .061.046.1.091.1h5.754c.056 0 .092-.05.092-.1v-2.17c0-.062-.046-.101-.092-.101h.005v-.006Zm32.68-6.498c0-2.965 1.5-4.411 3.797-4.411 2.265 0 3.787 1.451 3.776 4.41v4.7c0 3.004-1.408 4.387-3.776 4.387-2.369 0-3.797-1.355-3.797-4.388V6.738Zm3.797 6.833c.96 0 1.357-.711 1.357-2.225V6.845c0-1.513-.387-2.247-1.357-2.247s-1.357.762-1.357 2.247v4.501c0 1.52.397 2.225 1.357 2.225Zm8.498-11.244c-2.296 0-3.798 1.446-3.798 4.41v4.7c0 3.033 1.43 4.387 3.798 4.387 2.368 0 3.776-1.383 3.776-4.388V6.738c.011-2.96-1.511-4.411-3.776-4.411Zm1.357 9.02c0 1.513-.398 2.225-1.357 2.225-.96 0-1.357-.706-1.357-2.225V6.846c0-1.486.387-2.248 1.357-2.248s1.357.734 1.357 2.248v4.5Zm-21.67-8.8h3.282v.011c2.218 0 3.89 1.237 3.89 4.287v4.478c0 3.022-1.63 4.287-3.917 4.287h-3.254c-.047 0-.094-.04-.094-.102V2.66c0-.056.036-.113.094-.113Zm3.153 10.685c.99 0 1.61-.69 1.61-2.298l.005.005V7.014c0-1.626-.65-2.282-1.636-2.282h-.903v8.5h.924ZM30.937 2.304h-.036c-2.26 0-3.451 1.412-3.451 3.53 0 2.205 1.403 3.23 2.561 4.077l.224.165.269.197v.001h.001c.818.6 1.449 1.064 1.449 2.083 0 .853-.516 1.192-1.115 1.209-.66.016-1.14-.537-1.14-1.232V11.21a.127.127 0 0 0-.124-.13h-2.116c-.072 0-.123.057-.123.13v1.14c0 2.254 1.248 3.503 3.447 3.503 2.197 0 3.528-1.277 3.528-3.519 0-2.334-1.362-3.343-2.55-4.223l-.04-.03c-.13-.096-.26-.19-.391-.285-.814-.586-1.57-1.131-1.57-1.98 0-.84.526-1.236 1.136-1.236.655 0 1.12.514 1.12 1.192v.994c0 .073.056.13.123.13h2.116c.072 0 .123-.056.123-.13V5.8c.006-2.213-1.31-3.484-3.441-3.496Zm7.598 0h.037c2.13.012 3.441 1.282 3.441 3.496v.966c0 .074-.051.13-.123.13h-2.116a.124.124 0 0 1-.089-.04.13.13 0 0 1-.035-.09v-.994c0-.678-.464-1.192-1.12-1.192-.608 0-1.135.396-1.135 1.237 0 .847.756 1.393 1.57 1.98.13.093.261.188.391.285l.04.029c1.188.88 2.55 1.889 2.55 4.223 0 2.242-1.331 3.519-3.529 3.519s-3.447-1.248-3.447-3.502v-1.14c0-.074.052-.13.124-.13h2.116c.067 0 .124.056.124.13v1.123c0 .694.48 1.248 1.14 1.23.598-.016 1.114-.355 1.114-1.208 0-1.02-.63-1.482-1.447-2.082-.088-.064-.18-.13-.27-.2l-.223-.162-.002-.002c-1.158-.846-2.563-1.872-2.563-4.076 0-2.118 1.193-3.53 3.453-3.53ZM74.987 6.57V5.49c0-1.642-1.248-2.936-2.683-2.936h-4.261c-.052 0-.093.046-.093.102v12.848c0 .056.041.101.093.101h2.084c.056 0 .093-.05.093-.1v-5.35h1.022c.95 0 1.248.385 1.248 1.362v3.976c0 .062.047.101.093.101h2.151a.102.102 0 0 0 .098-.101V11.59c0-1.333-.335-2.186-1.191-2.536.861-.384 1.346-1.152 1.346-2.484Zm-2.332.452c0 .536-.392.965-.877.965h-1.584V4.723h1.584c.485 0 .877.43.877.96v1.339ZM21.989 2.554h2.22c.04 0 .082.034.092.085l2.88 12.831a.103.103 0 0 1-.094.141h-2.125c-.037 0-.083-.034-.093-.085l-.454-2.298h-2.652l-.454 2.298a.097.097 0 0 1-.093.085H19.09c-.062 0-.108-.068-.093-.14l2.899-12.832a.094.094 0 0 1 .03-.061.091.091 0 0 1 .063-.024Zm1.08 4.078-.878 4.439h1.774l-.876-4.44-.01.063-.01-.062ZM3.022 2.552H.04c-.023 0-.041.02-.041.044v2.923c0 .025.018.045.04.045h1.676c0 .89-.593 1.145-1.373 1.2a.04.04 0 0 0-.027.014.04.04 0 0 0-.01.028v1.126c0 .024.02.043.041.042.89-.046 1.554-.276 1.997-.657.482-.415.72-1.008.72-1.737V2.596c0-.025-.018-.045-.04-.045h-.001Z" clip-rule="evenodd"/></g><defs><clipPath id="a"><path fill="#fff" d="M0 0h79v16H0z"/></clipPath></defs></svg>